<svg xmlns="http://www.w3.org/2000/svg" width="32" height="32" viewBox="0 0 32 32"><g><g><path fill="#589bda" d="M16 32C7.178 32 0 24.822 0 16S7.178 0 16 0s16 7.178 16 16-7.178 16-16 16zm0-1.599c7.941 0 14.401-6.46 14.401-14.401S23.941 1.599 16 1.599 1.599 8.059 1.599 16 8.059 30.401 16 30.401zm0-6.656a.795.795 0 0 1-.568-.235l-4.496-4.495a.796.796 0 0 1 0-1.13.795.795 0 0 1 1.13 0l3.131 3.133V9.05a.802.802 0 1 1 1.606 0v11.973l3.132-3.132a.795.795 0 0 1 1.129 0 .795.795 0 0 1 0 1.13l-4.496 4.495a.788.788 0 0 1-.568.228z"/></g></g></svg>