<svg xmlns="http://www.w3.org/2000/svg" width="36" height="36" viewBox="0 0 36 36"><g><g><path fill="#adadad" d="M22.447 12.07c.424 1.695-.212 3.389-1.694 4.66-1.059.846-1.906 2.117-1.906 3.388.212.635-.212 1.059-.847 1.059s-1.059-.424-1.059-1.06c0-1.905.847-3.811 2.542-5.082.847-.635 1.058-1.482.847-2.54-.212-.848-.847-1.695-1.906-1.907-.847-.212-1.483 0-2.118.424-.635.423-.847 1.27-.847 1.906 0 .635-.424 1.058-1.059 1.058s-1.059-.423-1.059-1.058c0-1.483.636-2.753 1.694-3.6 1.06-.847 2.542-1.271 3.812-.847 1.694.423 3.176 1.694 3.6 3.6zm-3.812 13.554c.212.211.424.423.424.847 0 .211-.212.635-.424.635 0 .212-.423.423-.635.423-.212 0-.635-.211-.847-.423-.212-.212-.212-.424-.212-.635 0-.212 0-.636.212-.847a1.023 1.023 0 0 1 1.482 0zM36 18c0 9.953-8.047 18-18 18S0 27.953 0 18 8.047 0 18 0s18 8.047 18 18zm-2.118 0c0-8.682-7.2-15.882-15.882-15.882-8.682 0-15.882 7.2-15.882 15.882 0 8.682 7.2 15.882 15.882 15.882 8.682 0 15.882-7.2 15.882-15.882z"/></g></g></svg>